<?xml version="1.0" encoding="UTF-8" standalone="no"?>
<!-- Created with Inkscape (http://www.inkscape.org/) -->

<svg
   xmlns:dc="http://purl.org/dc/elements/1.1/"
   xmlns:cc="http://creativecommons.org/ns#"
   xmlns:rdf="http://www.w3.org/1999/02/22-rdf-syntax-ns#"
   xmlns:svg="http://www.w3.org/2000/svg"
   xmlns="http://www.w3.org/2000/svg"
   xmlns:sodipodi="http://sodipodi.sourceforge.net/DTD/sodipodi-0.dtd"
   xmlns:inkscape="http://www.inkscape.org/namespaces/inkscape"
   width="1536"
   height="2048"
   viewBox="0 0 406.39999 541.86668"
   version="1.1"
   id="svg8"
   sodipodi:docname="Grid.svg"
   inkscape:version="0.92.1 r15371">
  <defs
     id="defs2" />
  <sodipodi:namedview
     id="base"
     pagecolor="#ffffff"
     bordercolor="#666666"
     borderopacity="1.0"
     inkscape:pageopacity="0.0"
     inkscape:pageshadow="2"
     inkscape:zoom="0.24748737"
     inkscape:cx="380.95362"
     inkscape:cy="474.34736"
     inkscape:document-units="mm"
     inkscape:current-layer="layer1"
     showgrid="false"
     inkscape:window-width="1920"
     inkscape:window-height="1017"
     inkscape:window-x="-8"
     inkscape:window-y="-8"
     inkscape:window-maximized="1"
     units="px" />
  <metadata
     id="metadata5">
    <rdf:RDF>
      <cc:Work
         rdf:about="">
        <dc:format>image/svg+xml</dc:format>
        <dc:type
           rdf:resource="http://purl.org/dc/dcmitype/StillImage" />
        <dc:title></dc:title>
      </cc:Work>
    </rdf:RDF>
  </metadata>
  <g
     inkscape:label="Layer 1"
     inkscape:groupmode="layer"
     id="layer1"
     transform="translate(0,244.86668)">
    <path
       d="m 85.626248,-161.47857 v 541.86665 m 26.458332,-541.86665 v 541.86665 m 26.45834,-541.86665 v 541.86665 m 26.45833,-541.86665 v 541.86665 m 26.45833,-541.86665 v 541.86665 m 26.45833,-541.86665 v 541.86665 m 26.45834,-541.86665 v 541.86665 m 26.45833,-541.86665 v 541.86665 m 26.45833,-541.86665 v 541.86665 m 26.45833,-541.86665 v 541.86665 m 26.45834,-541.86665 v 541.86665 m 26.45833,-541.86665 v 541.86665 m 26.45833,-541.86665 v 541.86665 m 26.45833,-541.86665 v 541.86665 m 26.45834,-541.86665 v 541.86665 m 26.45833,-541.86665 V 380.38808 M 85.626248,-161.47857 H 492.02624 M 85.626248,-135.02024 H 492.02624 M 85.626248,-108.56191 H 492.02624 M 85.626248,-82.103578 H 492.02624 M 85.626248,-55.645238 H 492.02624 M 85.626248,-29.186907 H 492.02624 M 85.626248,-2.728571 H 492.02624 M 85.626248,23.729759 H 492.02624 M 85.626248,50.188089 H 492.02624 M 85.626248,76.646419 H 492.02624 M 85.626248,103.10476 H 492.02624 M 85.626248,129.56309 H 492.02624 M 85.626248,156.02142 H 492.02624 M 85.626248,182.47975 H 492.02624 M 85.626248,208.93809 H 492.02624 M 85.626248,235.39642 H 492.02624 M 85.626248,261.85475 H 492.02624 M 85.626248,288.31309 H 492.02624 M 85.626248,314.77142 H 492.02624 M 85.626248,341.22975 H 492.02624 M 85.626248,367.68808 H 492.02624"
       style="fill:none;stroke:#000000;stroke-width:0.26458299px"
       id="path5050"
       inkscape:connector-curvature="0" />
  </g>
</svg>
